<svg width="56" height="56" viewBox="0 0 56 56" fill="none" xmlns="http://www.w3.org/2000/svg">
<path fill-rule="evenodd" clip-rule="evenodd" d="M30.5363 4.94154L12.0016 15.6529C11.6879 15.8281 11.4267 16.0839 11.2448 16.3938C11.063 16.7037 10.9671 17.0565 10.9671 17.4158V27.3729L30.5148 15.9762C30.8376 15.7959 31.2011 15.7013 31.5708 15.7013C31.9406 15.7013 32.3041 15.7959 32.6269 15.9762L38.2735 19.2305C38.6669 19.4621 39.1262 19.5561 39.579 19.4975C40.0317 19.439 40.452 19.2313 40.7736 18.9072L44.7176 14.9417C44.9382 14.7153 45.1046 14.4418 45.2041 14.1418C45.3037 13.8419 45.3338 13.5232 45.2923 13.2098C45.2508 12.8965 45.1387 12.5966 44.9645 12.3329C44.7903 12.0692 44.5585 11.8484 44.2865 11.6873L32.6053 4.94154C32.2903 4.76141 31.9337 4.66666 31.5708 4.66666C31.208 4.66666 30.8514 4.76141 30.5363 4.94154ZM32.6049 51.0584L44.3292 44.291C44.4917 44.2019 44.6376 44.0852 44.7602 43.9462C45.1432 43.5589 45.358 43.0361 45.358 42.4914C45.358 41.9467 45.1432 41.424 44.7602 41.0367L40.7946 37.0711C40.4702 36.7519 40.0503 36.5475 39.599 36.4892C39.1476 36.4308 38.6895 36.5216 38.2946 36.7478L32.6049 40.0237C32.2898 40.2038 31.9332 40.2986 31.5704 40.2986C31.2075 40.2986 30.8509 40.2038 30.5359 40.0237L21.5487 34.8297C21.2335 34.6495 20.9718 34.3891 20.7901 34.0748C20.6084 33.7606 20.5132 33.4038 20.5142 33.0409V23.989L10.9666 29.5279V38.5582C10.9656 38.9212 11.0608 39.2779 11.2425 39.5922C11.4242 39.9064 11.686 40.1668 12.0011 40.347L30.5359 51.0584C30.8509 51.2385 31.2075 51.3332 31.5704 51.3332C31.9332 51.3332 32.2898 51.2385 32.6049 51.0584Z" fill="#FDFDFD"/>
</svg>
